<?xml version="1.0" standalone="no"?>
<!DOCTYPE svg PUBLIC "-//W3C//DTD SVG 20010904//EN"
 "http://www.w3.org/TR/2001/REC-SVG-20010904/DTD/svg10.dtd">
<svg version="1.0" xmlns="http://www.w3.org/2000/svg"
 width="700.000000pt" height="700.000000pt" viewBox="0 0 700.000000 700.000000"
 preserveAspectRatio="xMidYMid meet">
<metadata>
Created by potrace 1.11, written by Peter Selinger 2001-2013
</metadata>
<g transform="translate(0.000000,700.000000) scale(0.100000,-0.100000)"
fill="#000000" stroke="none">
<path d="M1635 5881 c-3 -2 -5 -381 -5 -841 l0 -836 -57 -1 c-207 0 -343 -75
-420 -231 l-38 -76 -2 -345 c-1 -191 2 -370 7 -400 20 -120 109 -245 209 -295
73 -37 113 -47 207 -51 l89 -3 3 -831 c2 -654 5 -831 15 -832 16 -1 1346 -1
1370 0 16 1 17 48 17 836 l0 835 298 1 c163 0 380 1 480 2 101 1 188 0 193 -4
5 -3 10 -357 11 -838 l3 -834 685 1 c377 0 691 1 698 1 9 1 12 176 12 841 l0
840 34 0 c170 0 330 107 386 258 30 78 30 85 30 367 -1 441 -7 489 -74 590
-76 115 -200 181 -343 184 l-33 1 0 833 0 833 -700 0 -700 0 0 -836 0 -835
-490 -3 -490 -3 0 839 0 838 -695 0 c-383 0 -698 -2 -700 -5z"/>
</g>
</svg>
